<?xml version="1.0" encoding="UTF-8"?>
<svg id="Layer_1" data-name="Layer 1" xmlns="http://www.w3.org/2000/svg" viewBox="0 0 1080 1080">
  <path d="M1009.26,832.85v1.83c-23.2,47.34-67.03,78.18-119.99,82.39-234.18-1.47-468.9,3.08-702.78-2.3-44.43-8.57-85.14-38.88-102.17-80.98l924.93-.94Z"/>
  <path d="M965.31,246.77v531.13H129.23l-2.75-2.75v-386.45l2.75-2.75h595.24l184.98-139.19h55.86ZM461.65,442.74h-223.44v54.94h223.44v-54.94ZM685.09,442.74h-139.19v54.94h139.19v-54.94ZM461.65,554.46h-223.44v54.94h223.44v-54.94ZM853.59,554.46h-307.69v54.94h307.69v-54.94ZM461.65,666.18h-223.44v54.94h223.44v-54.94ZM853.59,666.18h-307.69v54.94h307.69v-54.94Z"/>
  <path d="M628.31,162.52c-20.79,41.51-27.85,82.65-15.56,128.2,3.8,14.06,10.63,26.75,15.56,40.3h-249.08v-168.5h249.08Z"/>
  <path d="M210.73,162.52v168.5h-81.5c-22.03,0-47.68-22.15-54.39-42.68-6.12-18.73-5.63-73.17,3.04-91.08,7.6-15.7,31.7-34.73,49.52-34.73h83.33Z"/>
  <path d="M704.3,162.98l110.83,84.68-110.85,81.49c-56.48-35.41-54.79-129.95.03-166.18Z"/>
  <rect x="267.51" y="162.52" width="54.94" height="168.5"/>
</svg>